<svg width="24" height="24" viewBox="0 0 24 24" fill="none" xmlns="http://www.w3.org/2000/svg">
<path fill-rule="evenodd" clip-rule="evenodd" d="M11.8086 2.25C12.1469 2.24996 12.5449 2.47113 12.6084 2.93262C12.7572 4.01394 12.9475 5.35822 13.125 6.51758C13.3056 7.69784 13.4668 8.63543 13.5556 8.93945C13.8029 9.78934 14.3366 10.1259 14.9189 10.2822H14.9209C15.2346 10.3677 16.196 10.5261 17.4004 10.7041C18.5851 10.8792 19.9574 11.0676 21.0566 11.2148C21.9805 11.3386 21.9806 12.6622 21.0566 12.7861C19.9574 12.9336 18.5851 13.1217 17.4004 13.2969C16.1961 13.4749 15.2341 13.6326 14.9199 13.7178H14.9189C14.3371 13.874 13.8019 14.2131 13.5547 15.0605C13.4659 15.3646 13.3056 16.3013 13.125 17.4814C12.9475 18.6409 12.7572 19.9859 12.6084 21.0674C12.5449 21.5289 12.1469 21.75 11.8086 21.75C11.4704 21.7498 11.0731 21.5287 11.0097 21.0674C10.8612 19.9859 10.6714 18.641 10.4941 17.4814C10.3136 16.3014 10.1524 15.3655 10.0634 15.0615V15.0586C9.81944 14.2128 9.28456 13.874 8.70406 13.7178C8.38307 13.6314 7.47038 13.4738 6.34371 13.2959C5.23313 13.1205 3.95492 12.9316 2.93453 12.7842C2.0217 12.6521 2.02194 11.3488 2.93453 11.2168C3.9549 11.0695 5.23319 10.8804 6.34371 10.7051C7.47051 10.5272 8.38253 10.369 8.70309 10.2822H8.70406C9.2852 10.1258 9.81952 9.78913 10.0634 8.94043V8.93848C10.1524 8.63472 10.3136 7.69794 10.4941 6.51758C10.6714 5.35824 10.8612 4.01392 11.0097 2.93262C11.0731 2.47133 11.4704 2.25024 11.8086 2.25Z" fill="white"/>
</svg>
